<?xml version="1.0" encoding="UTF-8" standalone="no"?>
<!-- Created with Inkscape (http://www.inkscape.org/) -->
<svg
   xmlns:dc="http://purl.org/dc/elements/1.1/"
   xmlns:cc="http://web.resource.org/cc/"
   xmlns:rdf="http://www.w3.org/1999/02/22-rdf-syntax-ns#"
   xmlns:svg="http://www.w3.org/2000/svg"
   xmlns="http://www.w3.org/2000/svg"
   xmlns:xlink="http://www.w3.org/1999/xlink"
   xmlns:sodipodi="http://inkscape.sourceforge.net/DTD/sodipodi-0.dtd"
   xmlns:inkscape="http://www.inkscape.org/namespaces/inkscape"
   sodipodi:docname="key.svg"
   sodipodi:docbase="C:\Documents and Settings\Taka\デスクトップ"
   inkscape:version="0.40+cvs"
   sodipodi:version="0.32"
   id="svg2"
   height="297mm"
   width="210mm">
  <defs
     id="defs3">
    <linearGradient
       id="linearGradient2158">
      <stop
         id="stop2160"
         offset="0"
         style="stop-color:#d5b000;stop-opacity:1;" />
      <stop
         id="stop2162"
         offset="1.0000000"
         style="stop-color:#d5ff00;stop-opacity:1.0000000;" />
    </linearGradient>
    <linearGradient
       id="linearGradient2145">
      <stop
         id="stop2147"
         offset="0"
         style="stop-color:#ff135e;stop-opacity:1;" />
      <stop
         id="stop2153"
         offset="1.0000000"
         style="stop-color:#ff13ff;stop-opacity:0.96571428;" />
      <stop
         id="stop2149"
         offset="1"
         style="stop-color:#ff135e;stop-opacity:0;" />
    </linearGradient>
    <linearGradient
       gradientUnits="userSpaceOnUse"
       y2="-849.53949"
       x2="-3069.5122"
       y1="-921.12982"
       x1="-3158.3215"
       gradientTransform="scale(1.023052,0.977467)"
       id="linearGradient2151"
       xlink:href="#linearGradient2145"
       inkscape:collect="always" />
    <linearGradient
       gradientUnits="userSpaceOnUse"
       y2="-540.03546"
       x2="-2819.7817"
       y1="-648.91241"
       x1="-2933.3364"
       gradientTransform="scale(1.023052,0.977467)"
       id="linearGradient2164"
       xlink:href="#linearGradient2158"
       inkscape:collect="always" />
  </defs>
  <sodipodi:namedview
     inkscape:window-y="18"
     inkscape:window-x="304"
     inkscape:window-height="900"
     inkscape:window-width="845"
     inkscape:current-layer="layer2"
     inkscape:document-units="px"
     inkscape:cy="5184.0444"
     inkscape:cx="-1405.7513"
     inkscape:zoom="0.043750000"
     inkscape:pageshadow="2"
     inkscape:pageopacity="0.0"
     borderopacity="1.0"
     bordercolor="#666666"
     pagecolor="#ffffff"
     id="base" />
  <metadata
     id="metadata4">
    <rdf:RDF
       id="RDF5">
      <cc:Work
         id="Work6"
         rdf:about="">
        <dc:format
           id="format7">image/svg+xml</dc:format>
        <dc:type
           rdf:resource="http://purl.org/dc/dcmitype/StillImage"
           id="type9" />
      </cc:Work>
    </rdf:RDF>
  </metadata>
  <g
     inkscape:label="shadow"
     id="layer2"
     inkscape:groupmode="layer">
    <path
       id="path2169"
       d="M -2923.1249,-1113.0884 C -2923.2503,-1113.0836 -2923.3744,-1113.0622 -2923.4999,-1113.0571 C -2928.3299,-1112.8628 -2933.1422,-1112.4495 -2937.9374,-1111.8071 C -2972.5202,-1107.2662 -3005.7946,-1091.1149 -3031.3436,-1063.5571 C -3034.3915,-1060.2696 -3037.1991,-1056.8712 -3039.9061,-1053.4009 C -3082.5913,-1003.9445 -3088.6373,-934.60288 -3059.3749,-879.52595 L -3066.9061,-871.40095 C -3066.9260,-871.51541 -3066.9490,-871.63020 -3066.9686,-871.74470 L -3149.4686,-782.74470 L -3224.4374,-852.24470 L -3224.6249,-852.05720 L -3224.8436,-852.24470 L -3295.6561,-775.83845 L -3295.3436,-775.55720 L -3300.6249,-769.86970 L -3225.5311,-700.27595 L -3242.4686,-682.02595 L -3304.2811,-739.33845 L -3304.4999,-739.11970 L -3304.6874,-739.30720 L -3375.4999,-662.90095 L -3375.2186,-662.61970 L -3380.4686,-656.96345 L -3318.7499,-599.74470 L -3328.8749,-588.83845 L -3403.2499,-657.80720 L -3403.4686,-657.58845 L -3403.6561,-657.77595 L -3474.5624,-581.30720 L -3474.2811,-581.02595 L -3479.5311,-575.36970 L -3405.2186,-506.49470 L -3407.5624,-503.96345 L -3407.4686,-503.86970 L -3412.9061,-497.99470 L -3336.4374,-427.11970 L -2982.1249,-809.27595 C -2923.9019,-785.08412 -2854.2867,-797.95475 -2808.9374,-846.86970 C -2807.7867,-848.11083 -2806.8208,-849.44521 -2805.7186,-850.71345 C -2805.0205,-851.43802 -2804.2807,-852.09732 -2803.5936,-852.83845 C -2745.4235,-915.58209 -2749.1313,-1013.6996 -2811.8749,-1071.8696 C -2843.2467,-1100.9546 -2883.4774,-1114.5880 -2923.1249,-1113.0884 z M -2924.2186,-1020.7134 C -2906.4424,-1021.3858 -2888.4128,-1015.2883 -2874.3436,-1002.2446 C -2848.0883,-977.90332 -2844.8717,-937.96631 -2865.7499,-909.86970 C -2877.1509,-897.61882 -2891.9394,-890.39728 -2907.3436,-888.33845 C -2909.4155,-888.06153 -2911.5069,-887.89763 -2913.5936,-887.80720 C -2913.6040,-887.80681 -2913.6145,-887.80758 -2913.6249,-887.80720 C -2931.3967,-887.14841 -2949.4076,-893.23991 -2963.4686,-906.27595 C -2990.3152,-931.16571 -2992.9925,-972.32720 -2970.5311,-1000.4946 C -2957.7228,-1013.2393 -2941.1115,-1020.0744 -2924.2186,-1020.7134 z "
       style="opacity:0.17032965;fill:#000000;fill-opacity:1.0000000;stroke:#000000;stroke-opacity:1.0000000" />
    <path
       id="path2175"
       d="M -2649.9999,-850.05720 L -3004.3124,-467.86970 C -3062.5352,-492.06154 -3132.1192,-479.22217 -3177.4686,-430.30720 C -3180.1027,-427.46601 -3182.4630,-424.47402 -3184.8436,-421.49470 C -3185.0692,-421.22101 -3185.3077,-420.95703 -3185.5311,-420.68220 C -3186.7398,-419.14825 -3187.9515,-417.62435 -3189.0936,-416.05720 C -3217.2097,-378.67656 -3226.1344,-331.78529 -3216.2499,-288.43220 C -3216.1805,-289.67634 -3215.9741,-290.90823 -3215.8749,-292.15095 C -3209.6534,-261.44007 -3194.2472,-232.31542 -3169.5311,-209.40095 C -3106.7876,-151.23092 -3008.6698,-154.93857 -2950.4999,-217.68220 C -2930.0241,-239.76789 -2917.2981,-266.22079 -2912.0624,-293.77595 C -2905.0309,-328.44628 -2909.9915,-364.94382 -2926.6561,-396.77595 L -2832.1561,-498.71345 L -2756.9999,-429.02595 L -2686.1561,-505.43220 L -2686.8749,-506.11970 L -2685.8124,-507.27595 L -2760.2499,-576.30720 L -2738.9686,-599.24470 L -2677.1561,-541.93220 L -2606.3124,-618.33845 L -2607.0624,-619.02595 L -2605.9686,-620.21345 L -2667.0311,-676.80720 L -2652.5624,-692.43220 L -2578.1561,-623.46345 L -2507.2499,-699.93220 L -2507.9999,-700.61970 L -2506.9061,-701.80720 L -2580.5624,-770.08845 L -2573.8749,-777.30720 L -2574.5936,-777.99470 L -2573.5311,-779.15095 L -2649.9999,-850.05720 z M -3067.8436,-393.46345 C -3050.0617,-394.13054 -3032.0065,-388.03835 -3017.9374,-374.99470 C -3000.3591,-358.69773 -2993.1342,-335.41139 -2996.5311,-313.36970 C -2996.5327,-313.35942 -2996.5295,-313.34873 -2996.5311,-313.33845 C -2996.8193,-311.75823 -2997.1013,-310.18155 -2997.4999,-308.61970 C -2997.6827,-307.90314 -2997.9500,-307.20645 -2998.1561,-306.49470 C -2998.3373,-306.94741 -2998.4338,-307.42021 -2998.6249,-307.86970 C -3000.6312,-299.41492 -3004.2404,-291.26630 -3009.4686,-283.86970 C -3010.8372,-282.06988 -3012.3058,-280.31216 -3013.8749,-278.61970 C -3039.9622,-250.48129 -3083.9552,-248.81364 -3112.0936,-274.90095 C -3129.5731,-291.10632 -3136.8145,-314.24454 -3133.5624,-336.18220 C -3131.3224,-348.88964 -3125.6063,-361.11647 -3116.1874,-371.27595 C -3103.1437,-385.34516 -3085.6255,-392.79636 -3067.8436,-393.46345 z "
       style="opacity:0.17032965;fill:#000000;fill-opacity:1.0000000;stroke:#000000;stroke-opacity:1.0000000" />
  </g>
  <g
     id="layer1"
     inkscape:groupmode="layer"
     inkscape:label="Layer 1">
    <path
       id="path2134"
       d="M -3376.4222,-511.33463 L -3022.1016,-893.51362 C -2963.8787,-869.32179 -2894.2910,-882.17288 -2848.9416,-931.08783 C -2790.7716,-993.83146 -2794.4835,-1091.9643 -2857.2271,-1150.1343 C -2919.9708,-1208.3043 -3018.1036,-1204.5924 -3076.2736,-1141.8488 C -3122.3550,-1092.1442 -3129.4668,-1020.2940 -3099.2964,-963.63254 L -3194.6062,-860.82898 L -3269.7724,-930.51606 L -3340.6068,-854.11235 L -3265.4406,-784.42526 L -3287.8127,-760.29416 L -3349.6186,-817.59482 L -3420.4530,-741.19111 L -3358.6471,-683.89044 L -3374.2204,-667.09262 L -3448.6075,-736.05734 L -3519.5056,-659.58488 L -3445.1185,-590.62016 L -3452.8946,-582.23271 L -3376.4222,-511.33463 z M -3008.8276,-984.54583 C -3036.9660,-1010.6331 -3038.6300,-1054.6250 -3012.5427,-1082.7634 C -2986.4554,-1110.9018 -2942.4635,-1112.5659 -2914.3251,-1086.4786 C -2886.1866,-1060.3912 -2884.4998,-1016.3782 -2910.5871,-988.23974 C -2936.6744,-960.10132 -2980.6891,-958.45852 -3008.8276,-984.54583 z "
       style="stroke-opacity:1.0000000;stroke:#000000;fill-opacity:1.0;fill:url(#linearGradient2151);opacity:1.0000000" />
    <path
       id="path2120"
       d="M -2857.6333,-1150.1097 C -2920.3769,-1208.2797 -3018.5097,-1204.5678 -3076.6797,-1141.8241 C -3113.8151,-1101.7690 -3125.6099,-1047.3449 -3113.0132,-998.06484 C -3108.7639,-1028.2353 -3095.6866,-1057.4781 -3073.4034,-1081.5135 C -3015.2334,-1144.2571 -2917.1005,-1147.9689 -2854.3569,-1089.7990 C -2831.6441,-1068.7418 -2816.7757,-1042.4043 -2809.6691,-1014.4480 C -2802.7401,-1063.0888 -2818.9008,-1114.2005 -2857.6333,-1150.1097 z M -2897.9058,-1008.7665 C -2900.9706,-1001.3981 -2905.2533,-994.40638 -2910.9932,-988.21510 C -2937.0805,-960.07668 -2981.0953,-958.43388 -3009.2337,-984.52119 C -3014.8014,-989.68293 -3019.3194,-995.57281 -3022.8041,-1001.8751 C -3033.6801,-975.75925 -3027.8844,-944.53925 -3005.9345,-924.18931 C -2977.7950,-898.12427 -2933.7970,-899.77361 -2907.7168,-927.90447 C -2886.7940,-950.47238 -2883.7792,-983.21365 -2897.9058,-1008.7665 z M -3112.3228,-949.99542 L -3195.0124,-860.80428 L -3270.1786,-930.49136 L -3341.0130,-854.08765 L -3309.1590,-824.55562 L -3266.8794,-870.15952 L -3191.7132,-800.47243 L -3096.4263,-903.29727 C -3104.2853,-918.05698 -3109.5531,-933.83430 -3112.3228,-949.99542 z M -3350.0248,-817.57012 L -3420.8592,-741.16641 L -3389.0281,-711.65559 L -3346.7484,-757.25949 L -3284.9196,-699.93761 L -3262.5475,-724.06872 L -3337.7138,-793.75580 L -3331.5311,-800.42451 L -3350.0248,-817.57012 z M -3449.0137,-736.03264 L -3519.9118,-659.56018 L -3488.0578,-630.02815 L -3445.7144,-675.70080 L -3371.3274,-606.73608 L -3355.7540,-623.53390 L -3417.5828,-680.85577 L -3404.6015,-694.85777 L -3449.0137,-736.03264 z "
       style="opacity:0.43406591;fill:#ffffff;fill-opacity:1.0000000;stroke:none;stroke-opacity:1.0000000" />
    <path
       id="path2124"
       d="M -3381.7773,-505.36535 L -3027.4567,-887.54434 C -2969.2338,-863.35251 -2899.6460,-876.20363 -2854.2967,-925.11858 C -2796.1267,-987.86221 -2799.8386,-1085.9950 -2862.5822,-1144.1650 C -2925.3258,-1202.3351 -3023.4586,-1198.6232 -3081.6287,-1135.8795 C -3127.7101,-1086.1750 -3134.8219,-1014.3247 -3104.6515,-957.66325 L -3199.9613,-854.85970 L -3275.1275,-924.54678 L -3345.9619,-848.14307 L -3270.7957,-778.45598 L -3293.1678,-754.32487 L -3354.9737,-811.62554 L -3425.8081,-735.22182 L -3364.0022,-677.92116 L -3379.5755,-661.12334 L -3453.9626,-730.08806 L -3524.8607,-653.61559 L -3450.4736,-584.65088 L -3458.2497,-576.26343 L -3381.7773,-505.36535 z M -3014.1826,-978.57658 C -3042.3211,-1004.6639 -3043.9851,-1048.6558 -3017.8978,-1076.7942 C -2991.8104,-1104.9326 -2947.8186,-1106.5966 -2919.6801,-1080.5093 C -2891.5417,-1054.4220 -2889.8548,-1010.4089 -2915.9421,-982.27049 C -2942.0295,-954.13207 -2986.0442,-952.48927 -3014.1826,-978.57658 z "
       style="fill:none;fill-opacity:1.0000000;stroke:#000000;stroke-width:19.625000;stroke-miterlimit:4.0000000;stroke-opacity:1.0000000" />
    <path
       id="path1312"
       d="M -2695.6923,-926.45552 L -3050.0129,-544.27653 C -3108.2357,-568.46836 -3177.8235,-555.61727 -3223.1729,-506.70230 C -3281.3429,-443.95867 -3277.6310,-345.82585 -3214.8873,-287.65583 C -3152.1437,-229.48581 -3054.0109,-233.19772 -2995.8409,-295.94136 C -2949.7595,-345.64589 -2942.6476,-417.49619 -2972.8181,-474.15762 L -2877.5082,-576.96118 L -2802.3420,-507.27409 L -2731.5076,-583.67781 L -2806.6739,-653.36489 L -2784.3018,-677.49600 L -2722.4958,-620.19533 L -2651.6615,-696.59905 L -2713.4674,-753.89971 L -2697.8940,-770.69753 L -2623.5070,-701.73281 L -2552.6088,-778.20528 L -2626.9959,-847.17000 L -2619.2198,-855.55745 L -2695.6923,-926.45552 z M -3063.2869,-453.24430 C -3035.1485,-427.15700 -3033.4845,-383.16510 -3059.5718,-355.02669 C -3085.6591,-326.88829 -3129.6510,-325.22426 -3157.7894,-351.31157 C -3185.9278,-377.39887 -3187.6147,-421.41198 -3161.5274,-449.55039 C -3135.4401,-477.68882 -3091.4253,-479.33161 -3063.2869,-453.24430 z "
       style="opacity:1.0000000;fill:url(#linearGradient2164);fill-opacity:1.0;stroke:#000000;stroke-opacity:1.0000000" />
    <path
       id="path1291"
       d="M -2696.7049,-926.42717 L -3051.0255,-544.24818 C -3109.2483,-568.43994 -3178.8361,-555.58892 -3224.1855,-506.67394 C -3260.3616,-467.65343 -3272.5957,-414.94820 -3261.5900,-366.67762 C -3259.6500,-401.46389 -3246.0317,-435.81262 -3220.5119,-463.33892 C -3175.1625,-512.25389 -3105.5747,-525.10493 -3047.3519,-500.91316 L -2693.0313,-883.09215 L -2616.5589,-812.19407 L -2624.3349,-803.80662 L -2573.5289,-756.70407 L -2553.6214,-778.17686 L -2628.0084,-847.14157 L -2620.2324,-855.52903 L -2696.7049,-926.42717 z M -2695.2330,-727.33416 L -2710.8064,-710.53634 L -2672.5816,-675.09791 L -2657.0083,-691.89572 L -2695.2330,-727.33416 z M -2784.1053,-631.47431 L -2804.0129,-610.00152 L -2752.4277,-562.17660 L -2732.5202,-583.64939 L -2784.1053,-631.47431 z M -2960.7876,-440.90043 L -2970.1571,-430.79424 C -2963.6250,-418.52677 -2958.9584,-405.52681 -2955.9386,-392.21432 C -2955.0109,-408.55973 -2956.5877,-425.00627 -2960.7876,-440.90043 z M -3043.9836,-386.14199 C -3046.6588,-374.86895 -3052.1486,-364.09730 -3060.5843,-354.99827 C -3086.6716,-326.85987 -3130.6635,-325.19584 -3158.8019,-351.28315 C -3166.2160,-358.15681 -3171.7501,-366.29894 -3175.4672,-375.04330 C -3181.0602,-351.44739 -3174.1690,-325.60085 -3155.1284,-307.94819 C -3126.9900,-281.86088 -3082.9981,-283.52492 -3056.9108,-311.66332 C -3037.6957,-332.38921 -3033.5969,-361.70419 -3043.9836,-386.14199 z "
       style="stroke-opacity:1.0000000;stroke:none;fill-opacity:1.0000000;fill:#fffeff;opacity:0.90659341" />
    <path
       id="path2111"
       d="M -2695.3440,-928.31705 L -3049.6646,-546.13806 C -3107.8874,-570.32989 -3177.4752,-557.47880 -3222.8246,-508.56383 C -3280.9946,-445.82020 -3277.2827,-347.68738 -3214.5391,-289.51736 C -3151.7954,-231.34734 -3053.6626,-235.05925 -2995.4926,-297.80289 C -2949.4112,-347.50742 -2942.2993,-419.35771 -2972.4698,-476.01915 L -2877.1599,-578.82270 L -2801.9937,-509.13562 L -2731.1594,-585.53933 L -2806.3256,-655.22642 L -2783.9535,-679.35753 L -2722.1476,-622.05686 L -2651.3132,-698.46058 L -2713.1191,-755.76124 L -2697.5457,-772.55906 L -2623.1587,-703.59434 L -2552.2606,-780.06681 L -2626.6476,-849.03152 L -2618.8716,-857.41898 L -2695.3440,-928.31705 z M -3062.9386,-455.10583 C -3034.8002,-429.01853 -3033.1362,-385.02663 -3059.2235,-356.88822 C -3085.3108,-328.74982 -3129.3027,-327.08579 -3157.4411,-353.17310 C -3185.5795,-379.26040 -3187.2664,-423.27350 -3161.1791,-451.41192 C -3135.0918,-479.55035 -3091.0770,-481.19314 -3062.9386,-455.10583 z "
       style="fill:none;fill-opacity:1.0000000;stroke:#000000;stroke-width:19.625000;stroke-miterlimit:4.0000000;stroke-opacity:1.0000000" />
  </g>
</svg>
